<?xml version="1.0" standalone="no"?>
<!DOCTYPE svg PUBLIC "-//W3C//DTD SVG 20010904//EN"
 "http://www.w3.org/TR/2001/REC-SVG-20010904/DTD/svg10.dtd">
<svg version="1.0" xmlns="http://www.w3.org/2000/svg"
 width="500.000000pt" height="500.000000pt" viewBox="0 0 500.000000 500.000000"
 preserveAspectRatio="xMidYMid meet">
<metadata>
Created by potrace 1.16, written by Peter Selinger 2001-2019
</metadata>
<g transform="translate(0.000000,500.000000) scale(0.100000,-0.100000)"
fill="#473ce6" stroke="none">
<path d="M2345 4774 c-297 -24 -580 -101 -840 -228 -691 -339 -1145 -963
-1262 -1736 -23 -157 -23 -463 0 -620 41 -268 137 -566 243 -753 l22 -39 12
54 c42 179 176 331 355 404 60 24 87 29 189 32 108 4 126 2 202 -23 184 -60
331 -213 379 -395 20 -75 19 -219 -2 -294 -66 -239 -292 -415 -535 -416 l-73
-1 40 -35 c76 -69 281 -197 430 -270 322 -157 629 -228 995 -228 366 0 673 71
995 228 760 373 1234 1095 1280 1951 l7 120 -46 -80 c-143 -246 -368 -464
-634 -613 -90 -51 -293 -132 -387 -156 -38 -9 -86 -21 -105 -26 -142 -36 -477
-47 -635 -21 -107 17 -273 57 -365 87 -423 141 -766 461 -958 894 -135 304
-150 699 -40 1025 79 232 209 436 394 616 235 228 552 391 884 455 109 21 106
22 -73 49 -108 16 -377 26 -472 19z"/>
</g>
</svg>
